<svg id="Layer_1" data-name="Layer 1" xmlns="http://www.w3.org/2000/svg" viewBox="0 0 360 360"><defs><style>.cls-1{fill:#221f1f;}.cls-2{fill:#a8aaad;}.cls-3{fill:#ec2227;}</style></defs><title>A_combination_color</title><path class="cls-1" d="M241.06,63.43l-.41.57-3.87,5.39A100.15,100.15,0,0,1,249.6,80.22,98.44,98.44,0,0,1,122,229.33l-3.87,5.39-.41.57A105.79,105.79,0,1,0,241.06,63.43Z"/><path class="cls-1" d="M98,208l1.27-1.77A98.51,98.51,0,0,1,207.66,55.32l1.27-1.78L212.17,49A105.8,105.8,0,0,0,94.8,212.52Z"/><polygon class="cls-2" points="190.43 134.38 169.69 163.24 195.59 169.54 190.43 134.38"/><path class="cls-2" d="M118.4,179.66l-28.46-6.34a92.65,92.65,0,0,0,12.72,28.26Z"/><path class="cls-2" d="M200.12,199.47,179,194.33h-.06l-4.32-1.09-22.76-5.55L125.09,225a93.15,93.15,0,0,0,81.85,14Z"/><path class="cls-2" d="M233.63,73.77l-19.71,27.45,19.64,124.69a93,93,0,0,0,.07-152.14Z"/><path class="cls-2" d="M88.55,144.76,136,155.16,204.31,60A93.13,93.13,0,0,0,87.1,144.41Z"/><path class="cls-3" d="M228.85,56.42l-4.14,5.75L199.35,97.51l-4-1,25.88-36,4.17-5.81-6.23-2.72-4.23,5.89L139.13,163.38,87,151.94a90.66,90.66,0,0,0,1.27,13.47l42.61,9.49L104,212.3l-4.23,5.89q2.19,2.58,4.56,5l4.17-5.8,29.24-40.73,4.05,1L111.27,220.2,107.13,226q2.41,2.31,5,4.47l4.11-5.73,32.57-45.35.83.2,26.79,6.52,4.34,1.11,25.8,6.28,7.45,43a93.57,93.57,0,0,0,12.82-6.21L206.19,99.38l24.38-33.95,4.11-5.72ZM157.36,167.8l37.71-52.47,9.37,63.93Z"/><path class="cls-3" d="M13.7,314.87l14-25.78h5l4,25.78H31.29l-.63-4.9H22l-2.5,4.9Zm10.57-9.3H30.1L29,296.49Z"/><path class="cls-3" d="M65,289.09l-5,25.78H55.72l-7.1-15.95-3.1,15.95h-5l5-25.78h4.18l7.1,16.18L60,289.09Z"/><path class="cls-3" d="M74.1,315.2c-5.79,0-9.12-4-7.66-11.39l.71-3.66c1.53-8,5.68-11.39,12.06-11.39,5.83,0,9.16,4,7.7,11.39l-.71,3.66C84.67,311.69,80.63,315.2,74.1,315.2Zm-2.43-11.39c-1,4.93.26,7,3.29,7s5-2.06,6-7l.71-3.66c1-4.93-.3-7-3.33-7s-5,2.05-6,7Z"/><path class="cls-3" d="M112.72,289.09l-5,25.78h-4.22l-7.1-15.95-3.1,15.95h-5l5-25.78h4.18l7.1,16.18,3.14-16.18Z"/><path class="cls-3" d="M122.84,289.09l2.72,9.6,6.5-9.6h6.24l-11,15.24-2,10.54H120l2-10.54L117,289.09Z"/><path class="cls-3" d="M151,303.14l9.9-14.05h5.27l-5,25.78h-5l3.1-16-7.81,11.36h-3.17L144.91,299l-3.1,15.88h-5l5-25.78h4.59Z"/><path class="cls-3" d="M175.24,315.2c-5.79,0-9.11-4-7.66-11.39l.71-3.66c1.53-8,5.68-11.39,12.07-11.39,5.82,0,9.15,4,7.69,11.39l-.71,3.66C185.81,311.69,181.78,315.2,175.24,315.2Zm-2.43-11.39c-1,4.93.26,7,3.29,7s5-2.06,6-7l.71-3.66c1-4.93-.3-7-3.32-7s-5,2.05-6,7Z"/><path class="cls-3" d="M214.31,289.09l-2.95,15c-1.65,8.41-6.2,11.13-12.14,11.13-4.86,0-9.19-3.17-7.7-10.9l2.95-15.21h5.23l-3,15.36c-.86,4.4.22,6.35,3.36,6.35s5.12-1.95,6-6.35l3-15.36Z"/><path class="cls-3" d="M231.45,295.78c-.78-1.76-1.94-2.61-4.55-2.61s-4.26,1.34-4.26,3.21,1.38,2.61,4.29,3.43c4,1.12,6.58,3.07,6.58,6.88,0,4.67-3.36,8.51-10.42,8.51-4.45,0-7.55-1.68-9-4.33l4.3-2.65c1,1.72,2.46,2.58,5.12,2.58,3.51,0,4.63-1.68,4.63-3.4,0-1.46-1.09-2.47-4.22-3.36-3.92-1.09-6.61-3.25-6.61-6.92,0-4.37,2.91-8.36,10.12-8.36,4.41,0,7,1.57,8.37,4.29Z"/><path class="cls-1" d="M252.82,289.09c5.38,0,8.25,2.21,8.25,5.76s-2.13,5.49-4.67,6.61a5.09,5.09,0,0,1,3.25,5c0,4.45-3.14,8.41-11,8.41h-9.45l5-25.78Zm-7.55,21.37H249c3.67,0,5.38-1.53,5.38-3.92,0-2.06-1.49-2.84-4.55-2.84h-3.29Zm2.17-11.17h3.47c3.36,0,4.78-1.42,4.78-3.36,0-1.61-1-2.43-4.22-2.43h-2.91Z"/><path class="cls-1" d="M265.37,296.19h4.78l-3.63,18.68h-4.78Zm1.19-7.1h5.15l-.89,4.63h-5.16Z"/><path class="cls-1" d="M273.17,296.19h2.39l.79-4.11h4.74l-.78,4.11H284l-.79,4h-3.66L278,308c-.37,1.87-.15,2.65,1.61,2.65h1.53l-.82,4.19h-2c-3.89,0-6.13-1.27-5.19-6.09l1.68-8.56h-2.39Z"/><path class="cls-1" d="M298.38,312.1c-1.79,2.32-4.14,3.1-7.39,3.1-5.08,0-7.88-3.36-6.84-8.44l.52-2.54c1.24-5.9,4.64-8.37,9.94-8.37,3.14,0,5.23,1.35,6.09,3.18l-4,2.43a2.82,2.82,0,0,0-2.77-1.57c-2.68,0-4.07,1.64-4.63,4.63l-.37,1.94c-.52,2.69-.22,4.71,2.8,4.71a4.13,4.13,0,0,0,3.44-1.61Z"/><path class="cls-1" d="M316.72,306.61c-1.12,5.64-4.07,8.59-9.56,8.59-5.15,0-7.62-3.36-6.57-8.59l.44-2.24c1.12-5.6,4.11-8.52,9.68-8.52,5.23,0,7.51,3.33,6.46,8.52Zm-4.7-.15.37-1.94c.56-3-.08-4.63-2.43-4.63s-3.66,1.64-4.22,4.63l-.37,1.94c-.53,2.69-.26,4.71,2.39,4.71S311.49,309.15,312,306.46Z"/><path class="cls-1" d="M322.47,296.19h4.78l-3.62,18.68h-4.78Zm1.2-7.1h5.15l-.89,4.63h-5.16Z"/><path class="cls-1" d="M331.62,296.19h4.67L336,297.5a6.62,6.62,0,0,1,4.63-1.65c3.66,0,6.47,2,5.42,7.36l-2.28,11.66h-4.74l2.09-10.8c.56-2.95-.15-4.11-2.24-4.11s-3.55,1.65-4,4.08l-2.09,10.83H328Z"/></svg>