<svg id="Layer_1" data-name="Layer 1" xmlns="http://www.w3.org/2000/svg" viewBox="0 0 313 183.12"><defs><style>.cls-1{fill:#231f20;}</style></defs><title>A_ticker_black</title><path class="cls-1" d="M34,123.44,68.57,59.67H81l9.8,63.77H77.53L76,111.34H54.61l-6.19,12.1Zm26.16-23H74.57L71.8,78Z"/><path class="cls-1" d="M160.8,59.67l-12.38,63.77H138L120.41,84l-7.67,39.46H100.45l12.38-63.77h10.35l17.56,40,7.77-40Z"/><path class="cls-1" d="M183.44,124.28c-14.33,0-22.55-9.8-18.95-28.19L166.25,87C170,67.34,180.3,58.84,196.1,58.84c14.42,0,22.64,9.8,19,28.19l-1.76,9.06C209.59,115.59,199.61,124.28,183.44,124.28Zm-6-28.19c-2.4,12.2.65,17.28,8.13,17.28s12.48-5.08,14.88-17.28L202.2,87c2.4-12.2-.74-17.28-8.23-17.28S181.59,74.83,179.19,87Z"/><path class="cls-1" d="M279,59.67l-12.39,63.77H256.17L238.61,84l-7.67,39.46H218.65L231,59.67h10.35l17.56,40,7.77-40Z"/></svg>