<svg xmlns="http://www.w3.org/2000/svg" xmlns:xlink="http://www.w3.org/1999/xlink" viewBox="0 0 2000 2000"><defs><style>.cls-1,.cls-3{fill:none;}.cls-2{clip-path:url(#clip-path);}.cls-3{stroke:#be1e2d;stroke-miterlimit:10;stroke-width:4.54px;}.cls-4{clip-path:url(#clip-path-2);}.cls-5{isolation:isolate;}.cls-6{fill:#ec2427;}.cls-6,.cls-7{mix-blend-mode:multiply;}.cls-7{fill:url(#New_Pattern_8);}</style><clipPath id="clip-path"><rect class="cls-1" x="297.24" width="301" height="251"/></clipPath><clipPath id="clip-path-2"><rect class="cls-1" x="-2.76" width="301" height="251"/></clipPath><pattern id="New_Pattern_8" data-name="New Pattern 8" width="300" height="251" patternTransform="translate(-195.61 -129.95) scale(1.2)" patternUnits="userSpaceOnUse" viewBox="0 0 300 251"><rect class="cls-1" width="300" height="251"/><g class="cls-2"><polyline class="cls-3" points="421.99 197.75 398.24 174 364.24 174 344.11 194.13 292.99 194.13"/><polyline class="cls-3" points="632.27 144 516.92 144 417.94 45.02 398.24 45 282.9 45"/><polyline class="cls-3" points="267.73 93 398.24 93 423.24 118"/><polyline class="cls-3" points="285.73 245 343.23 245 363.74 224.49"/><line class="cls-3" x1="284.23" y1="144" x2="319.56" y2="144"/></g><g class="cls-4"><circle class="cls-3" cx="225.24" cy="206.12" r="7.21"/><circle class="cls-3" cx="267.74" cy="44.79" r="7.21"/><circle class="cls-3" cx="189.7" cy="21.67" r="7.21"/><circle class="cls-3" cx="221.74" cy="66.04" r="7.21"/><circle class="cls-3" cx="127.74" cy="122.54" r="7.21"/><circle class="cls-3" cx="69.53" cy="71.17" r="7.21"/><circle class="cls-3" cx="126.41" cy="201.21" r="7.21"/><circle class="cls-3" cx="67.24" cy="221.21" r="7.21"/><circle class="cls-3" cx="27.18" cy="144" r="7.21"/><circle class="cls-3" cx="63.68" cy="144" r="7.21"/><circle class="cls-3" cx="243.18" cy="173.32" r="7.21"/><polyline class="cls-3" points="70.22 144 98.24 144 127.74 173.5 238.24 173.5"/><polyline class="cls-3" points="121.99 197.75 98.24 174 64.24 174 44.11 194.13 -7.01 194.13"/><polyline class="cls-3" points="231.58 206.67 269.58 206.67 282.24 194.01 328.48 194.01"/><line class="cls-3" x1="273.72" y1="45" x2="332.27" y2="45"/><polyline class="cls-3" points="332.27 144 216.92 144 117.94 45.02 98.24 45 -17.1 45"/><polyline class="cls-3" points="-32.27 93 98.24 93 123.24 118"/><polyline class="cls-3" points="328.28 93 248.77 93 226.01 70.24"/><polyline class="cls-3" points="41.91 245 147.24 245 163.74 228.5 210.24 228.5 226.74 244.99 323.73 244.99"/><polyline class="cls-3" points="-14.27 245 43.23 245 63.74 224.49"/><line class="cls-3" x1="-15.77" y1="144" x2="19.56" y2="144"/><polyline class="cls-3" points="95.81 45.16 119.44 21.53 182.91 21.53"/><line class="cls-3" x1="47.24" y1="93" x2="65.24" y2="75"/></g></pattern></defs><title>A_visual_theme</title><g class="cls-5"><g id="Layer_1" data-name="Layer 1"><rect class="cls-6" x="-362.51" y="-23.96" width="2754.38" height="2071.47"/><rect class="cls-7" x="-390.16" y="-47" width="2754.38" height="2071.47"/></g></g></svg>