<svg id="Layer_1" data-name="Layer 1" xmlns="http://www.w3.org/2000/svg" viewBox="0 0 702 234"><defs><style>.cls-1{fill:#fff;}</style></defs><title>A_wordmark_white</title><path class="cls-1" d="M55,139.94,79.87,94.06h8.9l7,45.88h-9.5l-1.14-8.71H69.83l-4.46,8.71Zm18.82-16.56H84.19l-2-16.15Z"/><path class="cls-1" d="M146.22,94.06l-8.91,45.88h-7.52l-12.63-28.39-5.52,28.39H102.8l8.91-45.88h7.44l12.64,28.79,5.58-28.79Z"/><path class="cls-1" d="M162.5,140.54c-10.31,0-16.22-7-13.63-20.28l1.26-6.52c2.73-14.16,10.11-20.28,21.48-20.28,10.37,0,16.29,7.05,13.69,20.28L184,120.26C181.31,134.29,174.13,140.54,162.5,140.54Zm-4.32-20.28c-1.73,8.77.46,12.43,5.85,12.43s9-3.66,10.7-12.43l1.27-6.52c1.73-8.77-.54-12.43-5.92-12.43s-8.91,3.66-10.64,12.43Z"/><path class="cls-1" d="M231.24,94.06l-8.91,45.88h-7.51l-12.63-28.39-5.52,28.39h-8.84l8.91-45.88h7.44l12.63,28.79,5.59-28.79Z"/><path class="cls-1" d="M249.26,94.06l4.85,17.09,11.57-17.09h11.1l-19.55,27.13-3.65,18.75h-9.31l3.66-18.75-9.05-27.13Z"/><path class="cls-1" d="M299.31,119.06l17.62-25h9.38l-8.91,45.88h-8.91L314,111.48l-13.9,20.21h-5.65l-5.92-20L283,139.94h-8.84l8.91-45.88h8.18Z"/><path class="cls-1" d="M342.53,140.54c-10.31,0-16.23-7-13.63-20.28l1.26-6.52c2.72-14.16,10.11-20.28,21.47-20.28,10.38,0,16.29,7.05,13.7,20.28l-1.26,6.52C361.34,134.29,354.16,140.54,342.53,140.54Zm-4.33-20.28c-1.72,8.77.47,12.43,5.85,12.43s9-3.66,10.71-12.43l1.26-6.52c1.73-8.77-.53-12.43-5.91-12.43s-8.91,3.66-10.64,12.43Z"/><path class="cls-1" d="M412.07,94.06l-5.26,26.66c-2.92,15-11,19.82-21.6,19.82-8.65,0-16.36-5.65-13.7-19.42l5.25-27.06h9.31l-5.32,27.33c-1.53,7.84.4,11.3,6,11.3,5.85,0,9.1-3.46,10.63-11.3l5.32-27.33Z"/><path class="cls-1" d="M442.58,106c-1.4-3.12-3.46-4.65-8.11-4.65-4.85,0-7.58,2.39-7.58,5.72s2.46,4.65,7.64,6.11c7.05,2,11.71,5.46,11.71,12.24,0,8.31-6,15.16-18.55,15.16-7.91,0-13.43-3-16-7.72l7.65-4.72c1.86,3.06,4.39,4.59,9.11,4.59,6.25,0,8.24-3,8.24-6,0-2.59-1.93-4.39-7.51-6-7-1.93-11.77-5.79-11.77-12.3,0-7.78,5.19-14.9,18-14.9,7.84,0,12.37,2.8,14.89,7.65Z"/><path class="cls-1" d="M480.61,94.06c9.57,0,14.69,3.93,14.69,10.24s-3.79,9.78-8.31,11.77a9.07,9.07,0,0,1,5.78,8.91c0,7.91-5.58,15-19.61,15H456.34l8.91-45.88Zm-13.43,38h6.71c6.52,0,9.57-2.72,9.57-7,0-3.66-2.66-5-8.11-5H469.5ZM471,112.21h6.19c6,0,8.51-2.52,8.51-6,0-2.86-1.8-4.32-7.52-4.32H473Z"/><path class="cls-1" d="M502.94,106.7h8.51L505,139.94h-8.51Zm2.13-12.64h9.17l-1.59,8.25h-9.18Z"/><path class="cls-1" d="M516.83,106.7h4.26l1.4-7.32h8.44l-1.4,7.32h6.52l-1.4,7.18h-6.51l-2.73,13.89c-.66,3.33-.27,4.72,2.86,4.72H531l-1.47,7.45h-3.59c-6.91,0-10.9-2.26-9.24-10.84l3-15.22h-4.25Z"/><path class="cls-1" d="M561.71,135c-3.19,4.12-7.38,5.52-13.17,5.52-9,0-14-6-12.16-15l.93-4.52c2.19-10.51,8.24-14.89,17.68-14.89,5.59,0,9.31,2.39,10.84,5.65l-7.05,4.32a5,5,0,0,0-4.92-2.79c-4.78,0-7.24,2.92-8.24,8.24L545,125c-.93,4.79-.39,8.38,5,8.38a7.34,7.34,0,0,0,6.12-2.86Z"/><path class="cls-1" d="M594.35,125.25c-2,10-7.24,15.29-17,15.29-9.17,0-13.56-6-11.7-15.29l.8-4c2-10,7.31-15.16,17.22-15.16,9.31,0,13.36,5.91,11.5,15.16ZM586,125l.67-3.46c1-5.32-.13-8.24-4.32-8.24s-6.52,2.92-7.52,8.24l-.66,3.46c-.93,4.79-.47,8.38,4.26,8.38S585,129.77,586,125Z"/><path class="cls-1" d="M604.59,106.7h8.51l-6.45,33.24h-8.51Zm2.13-12.64h9.17l-1.6,8.25h-9.17Z"/><path class="cls-1" d="M620.88,106.7h8.31l-.47,2.32A11.85,11.85,0,0,1,637,106.1c6.51,0,11.5,3.52,9.64,13.09l-4.06,20.75h-8.44l3.72-19.22c1-5.25-.27-7.31-4-7.31s-6.32,2.93-7.18,7.25l-3.72,19.28h-8.51Z"/></svg>